HIERARCHY
ROOT Hips
{
  OFFSET 53.4451 95.9693 9.66785
  CHANNELS 6 Xposition Yposition Zposition Zrotation Xrotation Yrotation
  JOINT spine
  {
    OFFSET 0 8.13249 0.467659
    CHANNELS 3 Zrotation Xrotation Yrotation
    JOINT spine1
    {
      OFFSET 0 10.3498 0
      CHANNELS 3 Zrotation Xrotation Yrotation
      JOINT spine2
      {
        OFFSET 0 9.91699 0
        CHANNELS 3 Zrotation Xrotation Yrotation
        JOINT Neck
        {
          OFFSET 0 25.461 1.2139
          CHANNELS 3 Zrotation Xrotation Yrotation
          JOINT Head
          {
            OFFSET 0 7.69245 0
            CHANNELS 3 Zrotation Xrotation Yrotation
            End Site
            {
              OFFSET 0 18.62 -6.14063
            }
          }
        }
        JOINT RightShoulder
        {
          OFFSET -4.17575 10.7096 -0.581445
          CHANNELS 3 Zrotation Xrotation Yrotation
          JOINT RightArm
          {
            OFFSET 0 14.0466 0
            CHANNELS 3 Zrotation Xrotation Yrotation
            JOINT RightArmRoll
            {
              OFFSET 0 7.09099 0
              CHANNELS 3 Zrotation Xrotation Yrotation
              JOINT RightForeArm
              {
                OFFSET 0 20.6535 0
                CHANNELS 3 Zrotation Xrotation Yrotation
                JOINT RightForeArmRoll
                {
                  OFFSET 0 7.95718 0
                  CHANNELS 3 Zrotation Xrotation Yrotation
                  JOINT RightHand
                  {
                    OFFSET 0 15.9683 0
                    CHANNELS 3 Zrotation Xrotation Yrotation
                    End Site
                    {
                      OFFSET 0 0 0
                    }
                  }
                }
              }
            }
          }
        }
        JOINT LeftShoulder
        {
          OFFSET 4.17575 10.7096 -0.581445
          CHANNELS 3 Zrotation Xrotation Yrotation
          JOINT LeftArm
          {
            OFFSET 0 14.0466 0
            CHANNELS 3 Zrotation Xrotation Yrotation
            JOINT LeftArmRoll
            {
              OFFSET 0 7.09099 0
              CHANNELS 3 Zrotation Xrotation Yrotation
              JOINT LeftForeArm
              {
                OFFSET 0 20.6535 0
                CHANNELS 3 Zrotation Xrotation Yrotation
                JOINT LeftForeArmRoll
                {
                  OFFSET 0 7.95718 0
                  CHANNELS 3 Zrotation Xrotation Yrotation
                  JOINT LeftHand
                  {
                    OFFSET 0 15.9683 0
                    CHANNELS 3 Zrotation Xrotation Yrotation
                    End Site
                    {
                      OFFSET 0 0 0
                    }
                  }
                }
              }
            }
          }
        }
      }
    }
  }
  JOINT RightUpLeg
  {
    OFFSET -7.20834 -1.32182 -1.10884
    CHANNELS 3 Zrotation Xrotation Yrotation
    JOINT RightUpLegRoll
    {
      OFFSET 0 18.7238 0
      CHANNELS 3 Zrotation Xrotation Yrotation
      JOINT RightLeg
      {
        OFFSET 0 -23.1866 0
        CHANNELS 3 Zrotation Xrotation Yrotation
        JOINT RightLegRoll
        {
          OFFSET 0 23.2624 0
          CHANNELS 3 Zrotation Xrotation Yrotation
          JOINT RightFoot
          {
            OFFSET 0 19.3621 0
            CHANNELS 3 Zrotation Xrotation Yrotation
            JOINT RightToeBase
            {
              OFFSET 0 16.1857 0
              CHANNELS 3 Zrotation Xrotation Yrotation
              End Site
              {
                OFFSET 0.00686052 7.83863 -0.903522
              }
            }
          }
        }
      }
    }
  }
  JOINT LeftUpLeg
  {
    OFFSET 7.20834 -1.32182 -1.10884
    CHANNELS 3 Zrotation Xrotation Yrotation
    JOINT LeftUpLegRoll
    {
      OFFSET 0 18.7239 0
      CHANNELS 3 Zrotation Xrotation Yrotation
      JOINT LeftLeg
      {
        OFFSET 0 23.1865 0
        CHANNELS 3 Zrotation Xrotation Yrotation
        JOINT LeftLegRoll
        {
          OFFSET 0 23.4775 0
          CHANNELS 3 Zrotation Xrotation Yrotation
          JOINT LeftFoot
          {
            OFFSET 0 19.147 0
            CHANNELS 3 Zrotation Xrotation Yrotation
            JOINT LeftToeBase
            {
              OFFSET 0 16.1857 0
              CHANNELS 3 Zrotation Xrotation Yrotation
              End Site
              {
                OFFSET -0.0307459 7.83862 -0.903522
              }
            }
          }
        }
      }
    }
  }
}
MOTION
Frames: 10
Frame Time: 0.00208333
53.6615 95.9674 10.4369 0.110763 -5.35019 0.280238 0.177794 -1.64474 0.137094 0.361365 0.717701 0.254288 0.358894 2.36275 0.248285 -8.13544 10.0258 1.98198 -6.62512 1.54734 -0.574634 60.4035 -7.79877 -4.88796 125.747 34.7492 -60.7001 9.98579e-007 -1.95488e-007 -4.56648e-006 -165.055 77.4718 152.478 8.40228e-006 7.43062e-007 -3 8.02894 -4.95145 0.69768 -62.1512 -5.47892 3.58682 -133.413 45.0506 48.4814 2.33172e-005 2.43301e-006 1.85192e-006 135.851 84.8714 -128.46 1.27099e-005 -4.69947e-007 3 -8.02907 -4.95147 -0.697689 171.194 -0.801311 4.83627 180 7.01574e-015 179.046 178.601 12.5039 179.592 1.58948e-006 3.62527e-006 0.0908032 -18.3275 70.4018 21.6012 8.13663 25.2348 -3.48494 -172.967 -1.62669 -2.19202 4.5067e-006 -1.99009e-005 -0.995008 -1.27144 -13.1113 0.421623 3.15628e-006 -4.48877e-006 -0.216369 20.6658 72.1958 -23.5829 -8.13666 25.2351 3.48443 
53.6554 95.9758 10.4453 0.111546 -5.35444 0.28638 0.178761 -1.64019 0.139693 0.365487 0.727308 0.259352 0.363007 2.37235 0.253275 -8.12955 9.98967 1.98015 -6.67033 1.51544 -0.578403 60.3758 -7.82056 -4.9004 125.49 34.5842 -60.6316 9.98579e-007 -1.95488e-007 -4.56648e-006 -164.861 77.2586 152.111 8.40228e-006 7.43062e-007 -3 8.02894 -4.95145 0.69768 -62.1609 -5.51909 3.61076 -133.265 44.9498 48.5124 2.33172e-005 2.43301e-006 1.85192e-006 135.289 84.8633 -127.876 1.27099e-005 -4.69947e-007 3 -8.02907 -4.95147 -0.697689 171.19 -0.807739 4.83965 180 7.01574e-015 179.046 178.599 12.5065 179.593 1.58948e-006 3.62527e-006 0.0908501 -18.3266 70.4057 21.6032 8.13663 25.2348 -3.48494 -172.968 -1.62808 -2.19171 4.5067e-006 -1.99009e-005 -0.994831 -1.27043 -13.1185 0.421791 3.15628e-006 -4.48877e-006 -0.216665 20.6694 72.1998 -23.5889 -8.13666 25.2351 3.48443 
53.6624 95.9724 10.4439 0.112318 -5.35818 0.292739 0.179681 -1.63598 0.1422 0.369437 0.736194 0.264296 0.366945 2.38124 0.25815 -8.12295 9.95964 1.97864 -6.71595 1.47766 -0.582507 60.3495 -7.84334 -4.91348 125.234 34.4227 -60.5644 9.98579e-007 -1.95488e-007 -4.56648e-006 -164.677 77.0503 151.757 8.40228e-006 7.43062e-007 -3 8.02894 -4.95145 0.69768 -62.1705 -5.55754 3.6337 -133.112 44.8515 48.5399 2.33172e-005 2.43301e-006 1.85192e-006 134.731 84.8556 -127.296 1.27099e-005 -4.69947e-007 3 -8.02907 -4.95147 -0.697689 171.187 -0.81381 4.84292 180 7.01574e-015 179.046 178.597 12.5089 179.593 1.58948e-006 3.62527e-006 0.0908972 -18.326 70.4096 21.6053 8.13663 25.2348 -3.48494 -172.968 -1.62909 -2.19138 4.5067e-006 -1.99009e-005 -0.994658 -1.26945 -13.1252 0.421958 3.15628e-006 -4.48877e-006 -0.216915 20.6727 72.2035 -23.5946 -8.13666 25.2351 3.48443 
53.6589 95.9769 10.4484 0.113032 -5.36134 0.299214 0.180531 -1.63221 0.144566 0.373114 0.744143 0.269041 0.370607 2.38919 0.262831 -8.11557 9.93695 1.97765 -6.76124 1.43377 -0.58677 60.3257 -7.8665 -4.92686 124.979 34.2671 -60.497 9.98579e-007 -1.95488e-007 -4.56648e-006 -164.505 76.8509 151.421 8.40228e-006 7.43062e-007 -3 8.02894 -4.95145 0.69768 -62.1802 -5.59338 3.65513 -132.954 44.7571 48.5581 2.33172e-005 2.43301e-006 1.85192e-006 134.194 84.8483 -126.737 1.27099e-005 -4.69947e-007 3 -8.02907 -4.95147 -0.697689 171.184 -0.819433 4.846 180 7.01574e-015 179.046 178.595 12.511 179.594 1.58948e-006 3.62527e-006 0.0909445 -18.3256 70.4133 21.6072 8.13663 25.2348 -3.48494 -172.968 -1.6297 -2.19107 4.5067e-006 -1.99009e-005 -0.994488 -1.26855 -13.1314 0.422123 3.15628e-006 -4.48877e-006 -0.217104 20.6755 72.2068 -23.5996 -8.13666 25.2351 3.48443 
53.6565 95.9754 10.45 0.113636 -5.36381 0.305701 0.181292 -1.62899 0.146743 0.376418 0.750938 0.273503 0.373894 2.39598 0.267238 -8.10734 9.92284 1.97738 -6.80544 1.38351 -0.591015 60.3057 -7.88946 -4.94021 124.728 34.1198 -60.4279 9.98579e-007 -1.95488e-007 -4.56648e-006 -164.345 76.6645 151.106 8.40228e-006 7.43062e-007 -3 8.02894 -4.95145 0.69768 -62.19 -5.62574 3.67454 -132.79 44.668 48.5615 2.33172e-005 2.43301e-006 1.85192e-006 133.694 84.8414 -126.218 1.27099e-005 -4.69947e-007 3 -8.02907 -4.95147 -0.697689 171.181 -0.824522 4.84881 180 7.01574e-015 179.047 178.593 12.5127 179.594 1.58948e-006 3.62527e-006 0.0909921 -18.3255 70.4168 21.6091 8.13663 25.2348 -3.48494 -172.968 -1.62987 -2.19082 4.5067e-006 -1.99009e-005 -0.994322 -1.26772 -13.1369 0.422284 3.15628e-006 -4.48877e-006 -0.217223 20.6778 72.2098 -23.6041 -8.13666 25.2351 3.48443 
53.6619 95.9755 10.4518 0.114081 -5.36553 0.312098 0.181942 -1.62641 0.148683 0.37925 0.756361 0.277602 0.376706 2.40141 0.27129 -8.09818 9.91857 1.97801 -6.84781 1.32665 -0.595067 60.2905 -7.9116 -4.9532 124.483 33.9831 -60.3554 9.98579e-007 -1.95488e-007 -4.56648e-006 -164.197 76.495 150.815 8.40228e-006 7.43062e-007 -3 8.02894 -4.95145 0.69768 -62.1999 -5.65374 3.69142 -132.62 44.5857 48.5446 2.33172e-005 2.43301e-006 1.85192e-006 133.247 84.8352 -125.754 1.27099e-005 -4.69947e-007 3 -8.02907 -4.95147 -0.697689 171.179 -0.828987 4.85124 180 7.01574e-015 179.047 178.591 12.514 179.595 1.58948e-006 3.62527e-006 0.0910398 -18.3258 70.4201 21.6109 8.13663 25.2348 -3.48494 -172.968 -1.62956 -2.19066 4.5067e-006 -1.99009e-005 -0.99416 -1.267 -13.1416 0.422439 3.15628e-006 -4.48877e-006 -0.217259 20.6795 72.2123 -23.6078 -8.13666 25.2351 3.48443 
53.6667 95.9768 10.4533 0.114318 -5.36641 0.318303 0.182461 -1.62458 0.150339 0.381511 0.760195 0.281255 0.378942 2.40524 0.274908 -8.08802 9.92539 1.97975 -6.88762 1.26293 -0.598749 60.2815 -7.93231 -4.96548 124.244 33.8596 -60.2779 9.98579e-007 -1.95488e-007 -4.56648e-006 -164.061 76.3465 150.553 8.40228e-006 7.43062e-007 -3 8.02894 -4.95145 0.69768 -62.21 -5.67652 3.70526 -132.441 44.5118 48.5016 2.33172e-005 2.43301e-006 1.85192e-006 132.87 84.8297 -125.362 1.27099e-005 -4.69947e-007 3 -8.02907 -4.95147 -0.697689 171.177 -0.832741 4.85323 180 7.01574e-015 179.047 178.589 12.5147 179.595 1.58948e-006 3.62527e-006 0.0910878 -18.3266 70.4231 21.6125 8.13663 25.2348 -3.48494 -172.967 -1.62875 -2.19063 4.5067e-006 -1.99009e-005 -0.994004 -1.2664 -13.1455 0.422586 3.15628e-006 -4.48877e-006 -0.217199 20.6806 72.2143 -23.6106 -8.13666 25.2351 3.48443 
53.6671 95.9722 10.455 0.114296 -5.36636 0.324212 0.182826 -1.6236 0.151662 0.383102 0.762222 0.284381 0.380504 2.40727 0.278012 -8.0768 9.94452 1.9828 -6.9241 1.19212 -0.601885 60.2797 -7.951 -4.97671 124.013 33.7514 -60.1939 9.98579e-007 -1.95488e-007 -4.56648e-006 -163.937 76.223 150.321 8.40228e-006 7.43062e-007 -3 8.02894 -4.95145 0.69768 -62.2203 -5.69319 3.71555 -132.255 44.4475 48.4271 2.33172e-005 2.43301e-006 1.85192e-006 132.579 84.8253 -125.059 1.27099e-005 -4.69947e-007 3 -8.02907 -4.95147 -0.697689 171.176 -0.835694 4.85468 180 7.01574e-015 179.047 178.588 12.5148 179.596 1.58948e-006 3.62527e-006 0.091136 -18.3278 70.4257 21.614 8.13663 25.2348 -3.48494 -172.966 -1.62741 -2.19076 4.5067e-006 -1.99009e-005 -0.993853 -1.26594 -13.1483 0.422723 3.15628e-006 -4.48877e-006 -0.217033 20.681 72.2157 -23.6126 -8.13666 25.2351 3.48443 
53.6704 95.9737 10.4569 0.113954 -5.36526 0.330156 0.183076 -1.62341 0.152683 0.38416 0.762534 0.287133 0.381527 2.40758 0.280755 -8.06405 9.97702 1.98725 -6.95966 1.11001 -0.604833 60.2835 -7.96965 -4.98807 123.79 33.6537 -60.1066 9.98579e-007 -1.95488e-007 -4.56648e-006 -163.816 76.1207 150.107 8.40228e-006 7.43062e-007 -3 8.02894 -4.95145 0.69768 -62.2309 -5.70463 3.7228 -132.06 44.3912 48.3318 2.33172e-005 2.43301e-006 1.85192e-006 132.341 84.8219 -124.812 1.27099e-005 -4.69947e-007 3 -8.02907 -4.95147 -0.697689 171.176 -0.837921 4.85562 180 7.01574e-015 179.047 178.587 12.5141 179.596 1.58948e-006 3.62527e-006 0.0911843 -18.3295 70.4281 21.6153 8.13663 25.2348 -3.48494 -172.965 -1.62527 -2.1911 4.5067e-006 -1.99009e-005 -0.993708 -1.26558 -13.1503 0.422855 3.15628e-006 -4.48877e-006 -0.216735 20.6805 72.2166 -23.6136 -8.13666 25.2351 3.48443 
53.6663 95.9695 10.4575 0.113307 -5.36315 0.336495 0.183264 -1.62388 0.15348 0.384903 0.761448 0.289719 0.382227 2.40649 0.283339 -8.04953 10.0222 1.99292 -6.99689 1.0138 -0.60806 60.2904 -7.99041 -5.00079 123.57 33.5604 -60.0202 9.98579e-007 -1.95488e-007 -4.56648e-006 -163.69 76.0321 149.897 8.40228e-006 7.43062e-007 -3 8.02894 -4.95145 0.69768 -62.2417 -5.71249 3.72797 -131.858 44.3398 48.23 2.33172e-005 2.43301e-006 1.85192e-006 132.114 84.8196 -124.578 1.27099e-005 -4.69947e-007 3 -8.02907 -4.95147 -0.697689 171.176 -0.839574 4.85618 180 7.01574e-015 179.047 178.585 12.5127 179.596 1.58948e-006 3.62527e-006 0.0912325 -18.3316 70.4302 21.6163 8.13663 25.2348 -3.48494 -172.963 -1.6222 -2.19161 4.5067e-006 -1.99009e-005 -0.993568 -1.26527 -13.1518 0.422988 3.15628e-006 -4.48877e-006 -0.216303 20.6794 72.217 -23.614 -8.13666 25.2351 3.48443 
